<svg width="104" height="24" viewBox="0 0 104 24" fill="none" xmlns="http://www.w3.org/2000/svg">
<path d="M43.7805 13.11V18.61C43.0605 19.13 42.2905 19.52 41.4705 19.78C40.6572 20.0333 39.7639 20.16 38.7905 20.16C37.6372 20.16 36.5972 19.9833 35.6705 19.63C34.7439 19.27 33.9505 18.77 33.2905 18.13C32.6372 17.4833 32.1339 16.71 31.7805 15.81C31.4272 14.91 31.2505 13.92 31.2505 12.84C31.2505 11.7467 31.4205 10.75 31.7605 9.85C32.1072 8.95 32.5972 8.18 33.2305 7.54C33.8639 6.89333 34.6339 6.39333 35.5405 6.04C36.4472 5.68667 37.4605 5.51 38.5805 5.51C39.1472 5.51 39.6739 5.55333 40.1605 5.64C40.6472 5.72 41.0972 5.84 41.5105 6C41.9239 6.15333 42.3072 6.34333 42.6605 6.57C43.0139 6.79 43.3439 7.04 43.6505 7.32L43.1005 8.2C43.0139 8.33333 42.9005 8.42 42.7605 8.46C42.6272 8.49333 42.4772 8.46 42.3105 8.36C42.1505 8.26667 41.9672 8.15333 41.7605 8.02C41.5539 7.88667 41.3005 7.76 41.0005 7.64C40.7072 7.51333 40.3572 7.40667 39.9505 7.32C39.5505 7.23333 39.0739 7.19 38.5205 7.19C37.7139 7.19 36.9839 7.32333 36.3305 7.59C35.6772 7.85 35.1205 8.22667 34.6605 8.72C34.2005 9.20667 33.8472 9.8 33.6005 10.5C33.3539 11.1933 33.2305 11.9733 33.2305 12.84C33.2305 13.74 33.3572 14.5467 33.6105 15.26C33.8705 15.9667 34.2372 16.57 34.7105 17.07C35.1905 17.5633 35.7705 17.94 36.4505 18.2C37.1305 18.46 37.8939 18.59 38.7405 18.59C39.4072 18.59 39.9972 18.5167 40.5105 18.37C41.0305 18.2167 41.5372 18.0067 42.0305 17.74V14.59H39.8005C39.6739 14.59 39.5705 14.5533 39.4905 14.48C39.4172 14.4067 39.3805 14.3167 39.3805 14.21V13.11H43.7805ZM50.4827 9.71C51.2227 9.71 51.8894 9.83333 52.4827 10.08C53.0761 10.3267 53.5827 10.6767 54.0027 11.13C54.4227 11.5833 54.7427 12.1333 54.9627 12.78C55.1894 13.42 55.3027 14.1367 55.3027 14.93C55.3027 15.73 55.1894 16.45 54.9627 17.09C54.7427 17.73 54.4227 18.2767 54.0027 18.73C53.5827 19.1833 53.0761 19.5333 52.4827 19.78C51.8894 20.02 51.2227 20.14 50.4827 20.14C49.7361 20.14 49.0627 20.02 48.4627 19.78C47.8694 19.5333 47.3627 19.1833 46.9427 18.73C46.5227 18.2767 46.1994 17.73 45.9727 17.09C45.7527 16.45 45.6427 15.73 45.6427 14.93C45.6427 14.1367 45.7527 13.42 45.9727 12.78C46.1994 12.1333 46.5227 11.5833 46.9427 11.13C47.3627 10.6767 47.8694 10.3267 48.4627 10.08C49.0627 9.83333 49.7361 9.71 50.4827 9.71ZM50.4827 18.75C51.4827 18.75 52.2294 18.4167 52.7227 17.75C53.2161 17.0767 53.4627 16.14 53.4627 14.94C53.4627 13.7333 53.2161 12.7933 52.7227 12.12C52.2294 11.4467 51.4827 11.11 50.4827 11.11C49.9761 11.11 49.5327 11.1967 49.1527 11.37C48.7794 11.5433 48.4661 11.7933 48.2127 12.12C47.9661 12.4467 47.7794 12.85 47.6527 13.33C47.5327 13.8033 47.4727 14.34 47.4727 14.94C47.4727 16.14 47.7194 17.0767 48.2127 17.75C48.7127 18.4167 49.4694 18.75 50.4827 18.75ZM68.1276 18.46C68.6809 18.46 69.1576 18.3967 69.5576 18.27C69.9576 18.1433 70.2842 17.9667 70.5376 17.74C70.7976 17.5067 70.9876 17.2333 71.1076 16.92C71.2276 16.6 71.2876 16.25 71.2876 15.87C71.2876 15.13 71.0242 14.5467 70.4976 14.12C69.9709 13.6867 69.1809 13.47 68.1276 13.47H65.0276V18.46H68.1276ZM65.0276 7.2V12.09H67.5876C68.1342 12.09 68.6076 12.03 69.0076 11.91C69.4142 11.79 69.7476 11.6233 70.0076 11.41C70.2742 11.1967 70.4709 10.94 70.5976 10.64C70.7242 10.3333 70.7876 10 70.7876 9.64C70.7876 8.79333 70.5342 8.17667 70.0276 7.79C69.5209 7.39667 68.7342 7.2 67.6676 7.2H65.0276ZM67.6676 5.67C68.5476 5.67 69.3042 5.75667 69.9376 5.93C70.5776 6.10333 71.1009 6.35 71.5076 6.67C71.9209 6.99 72.2242 7.38333 72.4176 7.85C72.6109 8.31 72.7076 8.83 72.7076 9.41C72.7076 9.76333 72.6509 10.1033 72.5376 10.43C72.4309 10.75 72.2676 11.05 72.0476 11.33C71.8276 11.61 71.5476 11.8633 71.2076 12.09C70.8742 12.31 70.4809 12.49 70.0276 12.63C71.0809 12.83 71.8709 13.2067 72.3976 13.76C72.9309 14.3067 73.1976 15.0267 73.1976 15.92C73.1976 16.5267 73.0842 17.08 72.8576 17.58C72.6376 18.08 72.3109 18.51 71.8776 18.87C71.4509 19.23 70.9242 19.51 70.2976 19.71C69.6709 19.9033 68.9576 20 68.1576 20H63.0976V5.67H67.6676ZM80.941 15.44C80.121 15.4667 79.421 15.5333 78.841 15.64C78.2677 15.74 77.7977 15.8733 77.431 16.04C77.071 16.2067 76.8077 16.4033 76.641 16.63C76.481 16.8567 76.401 17.11 76.401 17.39C76.401 17.6567 76.4443 17.8867 76.531 18.08C76.6177 18.2733 76.7343 18.4333 76.881 18.56C77.0343 18.68 77.211 18.77 77.411 18.83C77.6177 18.8833 77.8377 18.91 78.071 18.91C78.3843 18.91 78.671 18.88 78.931 18.82C79.191 18.7533 79.4343 18.66 79.661 18.54C79.8943 18.42 80.1143 18.2767 80.321 18.11C80.5343 17.9433 80.741 17.7533 80.941 17.54V15.44ZM75.191 11.3C75.751 10.76 76.3543 10.3567 77.001 10.09C77.6477 9.82333 78.3643 9.69 79.151 9.69C79.7177 9.69 80.221 9.78333 80.661 9.97C81.101 10.1567 81.471 10.4167 81.771 10.75C82.071 11.0833 82.2977 11.4867 82.451 11.96C82.6043 12.4333 82.681 12.9533 82.681 13.52V20H81.891C81.7177 20 81.5843 19.9733 81.491 19.92C81.3977 19.86 81.3243 19.7467 81.271 19.58L81.071 18.62C80.8043 18.8667 80.5443 19.0867 80.291 19.28C80.0377 19.4667 79.771 19.6267 79.491 19.76C79.211 19.8867 78.911 19.9833 78.591 20.05C78.2777 20.1233 77.9277 20.16 77.541 20.16C77.1477 20.16 76.7777 20.1067 76.431 20C76.0843 19.8867 75.781 19.72 75.521 19.5C75.2677 19.28 75.0643 19.0033 74.911 18.67C74.7643 18.33 74.691 17.93 74.691 17.47C74.691 17.07 74.801 16.6867 75.021 16.32C75.241 15.9467 75.5977 15.6167 76.091 15.33C76.5843 15.0433 77.2277 14.81 78.021 14.63C78.8143 14.4433 79.7877 14.3367 80.941 14.31V13.52C80.941 12.7333 80.771 12.14 80.431 11.74C80.091 11.3333 79.5943 11.13 78.941 11.13C78.501 11.13 78.131 11.1867 77.831 11.3C77.5377 11.4067 77.281 11.53 77.061 11.67C76.8477 11.8033 76.661 11.9267 76.501 12.04C76.3477 12.1467 76.1943 12.2 76.041 12.2C75.921 12.2 75.8177 12.17 75.731 12.11C75.6443 12.0433 75.571 11.9633 75.511 11.87L75.191 11.3ZM92.4424 11.67C92.3891 11.7433 92.3358 11.8 92.2824 11.84C92.2291 11.88 92.1558 11.9 92.0624 11.9C91.9624 11.9 91.8524 11.86 91.7324 11.78C91.6124 11.6933 91.4624 11.6 91.2824 11.5C91.1091 11.4 90.8924 11.31 90.6324 11.23C90.3791 11.1433 90.0658 11.1 89.6924 11.1C89.1924 11.1 88.7524 11.19 88.3724 11.37C87.9924 11.5433 87.6724 11.7967 87.4124 12.13C87.1591 12.4633 86.9658 12.8667 86.8324 13.34C86.7058 13.8133 86.6424 14.3433 86.6424 14.93C86.6424 15.5433 86.7124 16.09 86.8524 16.57C86.9924 17.0433 87.1891 17.4433 87.4424 17.77C87.7024 18.09 88.0124 18.3367 88.3724 18.51C88.7391 18.6767 89.1491 18.76 89.6024 18.76C90.0358 18.76 90.3924 18.71 90.6724 18.61C90.9524 18.5033 91.1824 18.3867 91.3624 18.26C91.5491 18.1333 91.7024 18.02 91.8224 17.92C91.9491 17.8133 92.0724 17.76 92.1924 17.76C92.3391 17.76 92.4524 17.8167 92.5324 17.93L93.0324 18.58C92.8124 18.8533 92.5624 19.0867 92.2824 19.28C92.0024 19.4733 91.6991 19.6367 91.3724 19.77C91.0524 19.8967 90.7158 19.99 90.3624 20.05C90.0091 20.11 89.6491 20.14 89.2824 20.14C88.6491 20.14 88.0591 20.0233 87.5124 19.79C86.9724 19.5567 86.5024 19.22 86.1024 18.78C85.7024 18.3333 85.3891 17.7867 85.1624 17.14C84.9358 16.4933 84.8224 15.7567 84.8224 14.93C84.8224 14.1767 84.9258 13.48 85.1324 12.84C85.3458 12.2 85.6524 11.65 86.0524 11.19C86.4591 10.7233 86.9558 10.36 87.5424 10.1C88.1358 9.84 88.8158 9.71 89.5824 9.71C90.2958 9.71 90.9224 9.82667 91.4624 10.06C92.0091 10.2867 92.4924 10.61 92.9124 11.03L92.4424 11.67ZM96.7332 5.27V13.94H97.1932C97.3265 13.94 97.4365 13.9233 97.5232 13.89C97.6165 13.85 97.7132 13.7733 97.8132 13.66L101.013 10.23C101.107 10.1167 101.203 10.03 101.303 9.97C101.41 9.90333 101.55 9.87 101.723 9.87H103.333L99.6032 13.84C99.4232 14.0667 99.2299 14.2433 99.0232 14.37C99.1432 14.45 99.2499 14.5433 99.3432 14.65C99.4432 14.75 99.5365 14.8667 99.6232 15L103.583 20H101.993C101.84 20 101.707 19.9767 101.593 19.93C101.487 19.8767 101.393 19.7833 101.313 19.65L97.9832 15.5C97.8832 15.36 97.7832 15.27 97.6832 15.23C97.5899 15.1833 97.4432 15.16 97.2432 15.16H96.7332V20H94.9432V5.27H96.7332Z" fill="#0069D1"/>
<path d="M3.99994 10L3.29294 10.707L2.58594 10L3.29294 9.293L3.99994 10ZM20.9999 18C20.9999 18.2652 20.8946 18.5196 20.707 18.7071C20.5195 18.8946 20.2652 19 19.9999 19C19.7347 19 19.4804 18.8946 19.2928 18.7071C19.1053 18.5196 18.9999 18.2652 18.9999 18H20.9999ZM8.29294 15.707L3.29294 10.707L4.70694 9.293L9.70694 14.293L8.29294 15.707ZM3.29294 9.293L8.29294 4.293L9.70694 5.707L4.70694 10.707L3.29294 9.293ZM3.99994 9H13.9999V11H3.99994V9ZM20.9999 16V18H18.9999V16H20.9999ZM13.9999 9C15.8565 9 17.6369 9.7375 18.9497 11.0503C20.2624 12.363 20.9999 14.1435 20.9999 16H18.9999C18.9999 14.6739 18.4732 13.4021 17.5355 12.4645C16.5978 11.5268 15.326 11 13.9999 11V9Z" fill="#0069D1"/>
</svg>
