<svg width="118" height="52" viewBox="0 0 118 52" fill="none" xmlns="http://www.w3.org/2000/svg">
<path fill-rule="evenodd" clip-rule="evenodd" d="M111.1 32.0233C109.508 29.9282 107.489 27.9218 105.467 26C107.489 24.0782 109.508 22.0718 111.1 19.9767C113.035 17.4373 114.48 14.5882 114.48 11.375C114.48 5.66737 109.828 0.963224 104.706 0.130847C105.237 0.0446764 105.772 0 106.307 0C112.017 0 117.682 5.0765 117.682 11.375C117.682 14.5882 116.237 17.4373 114.302 19.9767C112.71 22.0718 110.691 24.0782 108.669 26C110.691 27.9218 112.71 29.9282 114.302 32.0233C116.235 34.5627 117.682 37.4118 117.682 40.625C117.682 46.9235 112.017 52 106.307 52C105.772 52 105.237 51.9553 104.706 51.8691C109.828 51.0368 114.48 46.3326 114.48 40.625C114.48 37.4118 113.033 34.5627 111.1 32.0233ZM104.707 22.2158C103.281 20.8102 101.974 19.4226 100.897 18.0093C99.1726 15.7387 98.1824 13.5785 98.1824 11.375C98.1824 7.55884 101.267 4.25383 104.706 3.44099C104.178 3.31606 103.641 3.25 103.105 3.25C99.0863 3.25 94.9805 6.97233 94.9805 11.375C94.9805 13.5785 95.9706 15.7387 97.6953 18.0093C99.1643 19.9377 101.062 21.8183 103.105 23.7618C103.651 23.2427 104.187 22.728 104.707 22.2158ZM97.6953 33.9907C99.1621 32.0623 101.062 30.1817 103.105 28.2382C103.651 28.7573 104.187 29.272 104.706 29.7842C103.28 31.1898 101.972 32.5774 100.897 33.9907C99.1726 36.2613 98.1824 38.4215 98.1824 40.625C98.1824 44.4412 101.267 47.7462 104.706 48.559C104.178 48.6839 103.641 48.75 103.105 48.75C99.0863 48.75 94.9805 45.0277 94.9805 40.625C94.9805 38.4215 95.9706 36.2613 97.6953 33.9907Z" fill="#001D86"/>
<path fill-rule="evenodd" clip-rule="evenodd" d="M101.79 0.0884343C96.5574 0.788564 91.73 5.5612 91.73 11.375C91.73 14.5882 93.1774 17.4373 95.11 19.9767C96.7025 22.0718 98.7219 24.0782 100.743 26C98.7219 27.9218 96.7025 29.9282 95.11 32.0233C93.1774 34.5627 91.73 37.4118 91.73 40.625C91.73 46.4388 96.5574 51.2114 101.79 51.9116C101.354 51.9699 100.915 52 100.476 52C94.7664 52 89.1006 46.9235 89.1006 40.625C89.1006 37.4118 90.5479 34.5627 92.4806 32.0233C94.0731 29.9282 96.0924 27.9218 98.1139 26C96.0924 24.0782 94.0731 22.0718 92.4806 19.9767C90.5479 17.4373 89.1006 14.5882 89.1006 11.375C89.1006 5.0765 94.7664 0 100.476 0C100.915 0 101.354 0.0300636 101.79 0.0884343ZM101.79 3.37928C105.343 4.07133 108.601 7.45325 108.601 11.375C108.601 13.5785 107.61 15.7387 105.886 18.0093C104.739 19.5166 103.328 20.9948 101.79 22.4966C102.22 22.9161 102.659 23.3375 103.105 23.7618C105.148 21.8183 107.048 19.9377 108.515 18.0093C110.24 15.7387 111.23 13.5785 111.23 11.375C111.23 6.97233 107.124 3.25 103.105 3.25C102.666 3.25 102.226 3.29441 101.79 3.37928ZM101.79 29.5034C102.22 29.0839 102.659 28.6625 103.105 28.2382C105.148 30.1817 107.046 32.0623 108.515 33.9907C110.24 36.2613 111.23 38.4215 111.23 40.625C111.23 45.0277 107.124 48.75 103.105 48.75C102.666 48.75 102.226 48.7056 101.79 48.6207C105.343 47.9287 108.601 44.5467 108.601 40.625C108.601 38.4215 107.61 36.2613 105.886 33.9907C104.737 32.4834 103.327 31.0052 101.79 29.5034Z" fill="#BEF9EB"/>
<path fill-rule="evenodd" clip-rule="evenodd" d="M102.521 0.0175929C97.0157 0.348005 91.7301 5.2915 91.7301 11.375C91.7301 14.5882 93.1774 17.4373 95.1101 19.9767C96.7026 22.0718 98.7219 24.0782 100.743 26C98.7219 27.9218 96.7026 29.9282 95.1101 32.0233C93.1774 34.5627 91.7301 37.4118 91.7301 40.625C91.7301 46.7085 97.0157 51.652 102.521 51.9824C102.326 51.9941 102.131 52 101.937 52C96.2274 52 90.5615 46.9235 90.5615 40.625C90.5615 37.4118 92.0089 34.5627 93.9415 32.0233C95.534 29.9282 97.5534 27.9218 99.5749 26C97.5534 24.0782 95.534 22.0718 93.9415 19.9767C92.0089 17.4373 90.5615 14.5882 90.5615 11.375C90.5615 5.0765 96.2274 0 101.937 0C102.131 0 102.326 0.00591542 102.521 0.0175929ZM102.521 3.27586C106.344 3.61227 110.062 7.18563 110.062 11.375C110.062 13.5785 109.071 15.7387 107.347 18.0093C106.021 19.7525 104.341 21.4567 102.521 23.2037C102.714 23.3892 102.909 23.5752 103.105 23.7618C105.148 21.8183 107.048 19.9377 108.515 18.0093C110.24 15.7387 111.23 13.5785 111.23 11.375C111.23 6.97233 107.124 3.25 103.105 3.25C102.91 3.25 102.715 3.25874 102.521 3.27586ZM102.521 48.7241C106.344 48.3877 110.062 44.8144 110.062 40.625C110.062 38.4215 109.071 36.2613 107.347 33.9907C106.019 32.2475 104.34 30.5433 102.521 28.7963C102.714 28.6108 102.909 28.4248 103.105 28.2382C105.148 30.1817 107.046 32.0623 108.515 33.9907C110.24 36.2613 111.23 38.4215 111.23 40.625C111.23 45.0277 107.124 48.75 103.105 48.75C102.91 48.75 102.715 48.7413 102.521 48.7241Z" fill="#D7AD1A"/>
<path d="M2.22023 37.79C2.37603 38.1405 2.58052 38.5008 2.83371 38.8709C3.10637 39.2214 3.42772 39.5428 3.79775 39.8349C4.18727 40.127 4.63521 40.3705 5.14157 40.5653C5.64794 40.7405 6.21273 40.8282 6.83596 40.8282C7.47865 40.8282 8.05318 40.7211 8.55955 40.5068C9.08539 40.2731 9.5236 39.9712 9.87416 39.6012C10.2442 39.2117 10.5266 38.7638 10.7213 38.2574C10.9161 37.7315 11.0135 37.1765 11.0135 36.5922C11.0135 35.6963 10.7798 34.9855 10.3124 34.4596C9.86442 33.9338 9.29963 33.4956 8.61798 33.145C7.93633 32.7945 7.19626 32.4731 6.39775 32.181C5.61873 31.8888 4.88839 31.5285 4.20674 31.1001C3.52509 30.6521 2.95056 30.0873 2.48315 29.4057C2.03521 28.7241 1.81124 27.8087 1.81124 26.6596C1.81124 25.8417 1.9573 25.1016 2.24944 24.4394C2.54157 23.7578 2.9603 23.1735 3.50562 22.6866C4.07041 22.1997 4.74232 21.8199 5.52135 21.5473C6.30038 21.2746 7.17678 21.1383 8.15056 21.1383C9.08539 21.1383 9.89363 21.2551 10.5753 21.4888C11.2569 21.7031 11.8899 22.0439 12.4742 22.5113C12.2989 22.8424 12.1528 23.193 12.036 23.563C11.9191 23.933 11.8022 24.4005 11.6854 24.9652H11.3348C11.2375 24.6926 11.1011 24.4005 10.9258 24.0888C10.77 23.7578 10.5461 23.4559 10.2539 23.1832C9.98127 22.9106 9.65019 22.6866 9.26068 22.5113C8.87116 22.3166 8.40375 22.2192 7.85843 22.2192C7.31311 22.2192 6.80674 22.3068 6.33933 22.4821C5.89139 22.6574 5.49214 22.9106 5.14157 23.2417C4.81049 23.5533 4.54757 23.933 4.35281 24.381C4.17753 24.8289 4.08989 25.3158 4.08989 25.8417C4.08989 26.757 4.31386 27.4776 4.7618 28.0035C5.22921 28.5293 5.80375 28.9772 6.48539 29.3473C7.16704 29.6978 7.89738 30.0192 8.67641 30.3113C9.47491 30.584 10.215 30.9248 10.8966 31.3338C11.5783 31.7428 12.1431 32.2686 12.591 32.9113C13.0584 33.554 13.2921 34.4109 13.2921 35.4821C13.2921 36.378 13.1266 37.2252 12.7955 38.0237C12.4839 38.8222 12.0165 39.5233 11.3933 40.127C10.7895 40.7113 10.0397 41.169 9.14382 41.5001C8.26742 41.8117 7.26442 41.9675 6.13483 41.9675C4.92734 41.9675 3.94382 41.8117 3.18427 41.5001C2.4442 41.169 1.82097 40.799 1.31461 40.39C1.48989 39.942 1.60674 39.5428 1.66517 39.1922C1.74307 38.8222 1.81124 38.3548 1.86966 37.79H2.22023ZM19.9528 34.6933C19.9528 35.5113 20.021 36.3001 20.1573 37.0596C20.3131 37.8192 20.5663 38.5008 20.9169 39.1046C21.2674 39.6888 21.7348 40.1563 22.3191 40.5068C22.9034 40.8574 23.624 41.0327 24.4809 41.0327C25.3378 41.0327 26.0584 40.8574 26.6427 40.5068C27.227 40.1563 27.6944 39.6888 28.0449 39.1046C28.3955 38.5008 28.639 37.8192 28.7753 37.0596C28.9311 36.3001 29.009 35.5113 29.009 34.6933C29.009 33.8754 28.9311 33.0866 28.7753 32.327C28.639 31.5675 28.3955 30.8956 28.0449 30.3113C27.6944 29.7076 27.227 29.2304 26.6427 28.8799C26.0584 28.5293 25.3378 28.354 24.4809 28.354C23.624 28.354 22.9034 28.5293 22.3191 28.8799C21.7348 29.2304 21.2674 29.7076 20.9169 30.3113C20.5663 30.8956 20.3131 31.5675 20.1573 32.327C20.021 33.0866 19.9528 33.8754 19.9528 34.6933ZM17.382 34.6933C17.382 33.369 17.5865 32.2491 17.9955 31.3338C18.424 30.399 18.979 29.6491 19.6607 29.0844C20.3423 28.5001 21.1019 28.0814 21.9393 27.8282C22.7963 27.5555 23.6434 27.4192 24.4809 27.4192C25.3378 27.4192 26.185 27.5555 27.0225 27.8282C27.8599 28.0814 28.6195 28.5001 29.3011 29.0844C29.9828 29.6491 30.5281 30.399 30.9371 31.3338C31.3655 32.2491 31.5798 33.369 31.5798 34.6933C31.5798 36.0177 31.3655 37.1473 30.9371 38.0821C30.5281 38.9975 29.9828 39.7473 29.3011 40.3315C28.6195 40.8963 27.8599 41.2956 27.0225 41.5293C26.185 41.763 25.3378 41.8799 24.4809 41.8799C23.6434 41.8799 22.7963 41.763 21.9393 41.5293C21.1019 41.2956 20.3423 40.8963 19.6607 40.3315C18.979 39.7473 18.424 38.9975 17.9955 38.0821C17.5865 37.1473 17.382 36.0177 17.382 34.6933ZM37.325 27.9742C37.325 27.3121 37.3153 26.5915 37.2958 25.8124C37.2958 25.0334 37.2861 24.2641 37.2666 23.5046C37.2471 22.745 37.2179 22.0244 37.179 21.3428C37.1595 20.6417 37.1303 20.0476 37.0913 19.5608C37.6366 19.6581 38.0748 19.7068 38.4059 19.7068C38.737 19.7068 39.1752 19.6581 39.7205 19.5608C39.6816 20.0476 39.6426 20.6417 39.6037 21.3428C39.5842 22.0244 39.5647 22.745 39.5452 23.5046C39.5258 24.2641 39.5063 25.0334 39.4868 25.8124C39.4868 26.5915 39.4868 27.3121 39.4868 27.9742V33.2619C39.4868 33.9241 39.4868 34.6447 39.4868 35.4237C39.5063 36.2027 39.5258 36.972 39.5452 37.7315C39.5647 38.4911 39.5842 39.2117 39.6037 39.8933C39.6426 40.575 39.6816 41.1398 39.7205 41.5877C39.2726 41.5488 38.8344 41.5293 38.4059 41.5293C37.9775 41.5293 37.5393 41.5488 37.0913 41.5877C37.1303 41.1398 37.1595 40.575 37.179 39.8933C37.2179 39.2117 37.2471 38.4911 37.2666 37.7315C37.2861 36.972 37.2958 36.2027 37.2958 35.4237C37.3153 34.6447 37.325 33.9241 37.325 33.2619V27.9742ZM50.5097 41.5877C49.6138 39.2896 48.7082 36.9915 47.7928 34.6933C46.8969 32.3952 45.9134 30.0679 44.8422 27.7113C45.0954 27.7503 45.3389 27.7892 45.5726 27.8282C45.8063 27.8476 46.0497 27.8574 46.3029 27.8574C46.5171 27.8574 46.7314 27.8476 46.9456 27.8282C47.1598 27.7892 47.3741 27.7503 47.5883 27.7113C48.1921 29.6394 48.8445 31.5383 49.5456 33.4079C50.2662 35.2581 51.0647 37.157 51.9411 39.1046C52.3306 38.3061 52.7104 37.4491 53.0804 36.5338C53.47 35.599 53.8497 34.6349 54.2198 33.6417C54.6093 32.6484 54.9793 31.6551 55.3299 30.6619C55.6999 29.6491 56.0602 28.6656 56.4108 27.7113C56.7613 27.8087 57.0632 27.8574 57.3164 27.8574C57.5696 27.8574 57.8715 27.8087 58.222 27.7113C57.1703 30.0679 56.1381 32.3952 55.1254 34.6933C54.1127 36.9915 53.1876 39.2896 52.3501 41.5877C52.058 41.5488 51.7561 41.5293 51.4445 41.5293C51.1329 41.5293 50.8213 41.5488 50.5097 41.5877ZM68.0168 28.354C67.2962 28.354 66.6827 28.5196 66.1763 28.8506C65.6894 29.1817 65.2804 29.6005 64.9493 30.1068C64.6377 30.5937 64.3943 31.139 64.219 31.7428C64.0632 32.327 63.9658 32.8821 63.9269 33.4079C64.5306 33.4274 65.1538 33.4469 65.7965 33.4664C66.4587 33.4859 67.1014 33.4956 67.7246 33.4956C68.3673 33.4956 69.0198 33.4859 69.6819 33.4664C70.3441 33.4469 70.9868 33.4274 71.61 33.4079C71.61 32.8821 71.5613 32.327 71.4639 31.7428C71.386 31.1585 71.2108 30.6132 70.9381 30.1068C70.6849 29.6005 70.3246 29.1817 69.8572 28.8506C69.3898 28.5196 68.7763 28.354 68.0168 28.354ZM61.2684 35.1023C61.2684 32.7068 61.8332 30.8274 62.9628 29.4641C64.1119 28.1008 65.7771 27.4192 67.9583 27.4192C68.9905 27.4192 69.8767 27.5847 70.6168 27.9158C71.3763 28.2274 72.0093 28.6559 72.5156 29.2012C73.022 29.727 73.392 30.3503 73.6257 31.0709C73.8789 31.7915 74.0055 32.5608 74.0055 33.3787C74.0055 33.5735 73.9958 33.7682 73.9763 33.963C73.9763 34.1383 73.9666 34.3233 73.9471 34.5181C72.8954 34.4986 71.8535 34.4791 70.8213 34.4596C69.789 34.4402 68.7471 34.4304 67.6954 34.4304C67.0527 34.4304 66.41 34.4402 65.7673 34.4596C65.1441 34.4791 64.5111 34.4986 63.8684 34.5181C63.849 34.6154 63.8392 34.7615 63.8392 34.9563V35.336C63.8392 36.0956 63.9463 36.8064 64.1606 37.4686C64.3943 38.1308 64.7254 38.7053 65.1538 39.1922C65.5823 39.6596 66.1081 40.0394 66.7314 40.3315C67.3546 40.6042 68.0752 40.7405 68.8932 40.7405C69.2827 40.7405 69.6819 40.6918 70.0909 40.5945C70.4999 40.4776 70.8992 40.3315 71.2887 40.1563C71.6782 39.9615 72.0385 39.7375 72.3696 39.4844C72.7201 39.2312 73.022 38.9585 73.2752 38.6664L73.4213 38.754L73.246 40.1855C72.6617 40.6529 71.9314 41.0521 71.055 41.3832C70.198 41.7143 69.3021 41.8799 68.3673 41.8799C67.3156 41.8799 66.3516 41.7241 65.4752 41.4124C64.6183 41.0814 63.8684 40.6139 63.2257 40.0102C62.6025 39.387 62.1156 38.6566 61.7651 37.8192C61.434 36.9817 61.2684 36.0761 61.2684 35.1023Z" fill="#001D86"/>
<path d="M79.4684 29.0844C79.4684 27.799 79.4392 26.5428 79.3808 25.3158C79.3418 24.0694 79.2932 22.8035 79.2347 21.5181C79.4879 21.557 79.7314 21.596 79.9651 21.6349C80.1988 21.6544 80.4325 21.6641 80.6662 21.6641C80.8999 21.6641 81.1336 21.6544 81.3673 21.6349C81.601 21.596 81.8445 21.557 82.0977 21.5181C82.0392 22.8035 81.9808 24.0694 81.9224 25.3158C81.8834 26.5428 81.8639 27.799 81.8639 29.0844V34.1091C81.8639 35.3945 81.8834 36.6604 81.9224 37.9068C81.9808 39.1533 82.0392 40.3802 82.0977 41.5877C81.6497 41.5488 81.1726 41.5293 80.6662 41.5293C80.1598 41.5293 79.6827 41.5488 79.2347 41.5877C79.2932 40.3802 79.3418 39.1533 79.3808 37.9068C79.4392 36.6604 79.4684 35.3945 79.4684 34.1091V29.0844Z" fill="#D7AD1A"/>
<circle cx="80.6296" cy="16.0691" r="3.50562" fill="#D7AD1A"/>
</svg>
